<?xml version="1.0" standalone="no"?>
<!DOCTYPE svg PUBLIC "-//W3C//DTD SVG 20010904//EN"
 "http://www.w3.org/TR/2001/REC-SVG-20010904/DTD/svg10.dtd">
<svg version="1.0" xmlns="http://www.w3.org/2000/svg"
 width="888.000000pt" height="888.000000pt" viewBox="0 0 888.000000 888.000000"
 preserveAspectRatio="xMidYMid meet">
<metadata>
Created by potrace 1.11, written by Peter Selinger 2001-2013
</metadata>
<g transform="translate(0.000000,888.000000) scale(0.100000,-0.100000)"
fill="#000000" stroke="none">
<path d="M8228 8865 c-2 -2 -25 -6 -53 -9 -38 -5 -278 -56 -425 -91 -33 -7
-381 -98 -465 -121 -49 -14 -124 -34 -165 -45 -67 -18 -485 -138 -615 -176
-50 -14 -106 -30 -135 -37 -8 -2 -35 -11 -60 -19 -25 -8 -85 -27 -135 -42 -49
-14 -101 -31 -115 -36 -14 -5 -34 -11 -45 -13 -11 -3 -65 -19 -120 -36 -55
-18 -127 -40 -160 -50 -175 -53 -247 -77 -550 -178 -364 -121 -578 -200 -820
-299 -88 -36 -214 -88 -280 -115 -66 -27 -129 -53 -140 -58 -11 -5 -67 -29
-125 -54 -342 -144 -535 -259 -579 -343 -34 -66 7 -145 156 -299 229 -238 293
-316 340 -413 38 -80 41 -152 10 -281 -57 -234 -175 -543 -281 -732 -98 -174
-172 -239 -341 -297 -116 -40 -147 -52 -210 -80 -107 -49 -179 -107 -290 -236
-51 -59 -179 -105 -365 -131 -19 -2 -48 -7 -65 -9 -16 -3 -50 -8 -75 -11 -69
-9 -130 -39 -130 -63 0 -24 31 -46 78 -56 18 -4 139 -8 270 -10 250 -4 302
-11 335 -44 19 -18 19 -23 7 -46 -19 -36 -198 -121 -490 -233 -850 -328 -914
-354 -1159 -473 -185 -90 -337 -186 -395 -249 -60 -65 -67 -107 -62 -350 3
-113 7 -216 10 -230 3 -14 7 -52 10 -85 7 -70 14 -128 21 -170 2 -16 7 -48 10
-70 3 -22 11 -64 16 -94 6 -30 12 -64 14 -75 1 -12 5 -34 9 -51 3 -16 8 -39
10 -50 12 -57 58 -258 71 -310 9 -33 18 -69 20 -79 25 -110 138 -416 216 -582
21 -47 39 -87 39 -90 0 -7 217 -438 261 -521 109 -201 293 -501 347 -564 11
-13 37 -44 56 -68 69 -82 126 -109 160 -75 26 25 14 65 -48 164 -138 218 -142
245 -138 800 2 206 4 488 5 625 1 138 -1 293 -6 345 -28 345 -28 594 -1 760
12 69 54 187 86 235 33 52 188 212 293 302 98 84 108 93 144 121 19 15 52 42
75 61 78 64 302 229 426 313 248 169 483 297 600 326 53 14 205 6 365 -17 33
-5 155 -8 270 -6 179 3 226 7 316 28 58 13 140 25 182 26 82 2 120 6 217 22
73 12 97 16 122 18 12 1 23 21 38 70 l20 68 74 -17 c81 -20 155 -30 331 -45
69 -6 132 -8 715 -20 484 -11 620 -8 729 16 85 19 131 63 98 96 -25 26 -104
34 -302 32 -373 -2 -408 -1 -471 26 -90 37 2 102 171 120 33 3 76 8 95 10 19
2 71 7 115 10 243 17 267 20 338 37 145 36 47 102 -203 137 -136 19 -262 25
-490 22 -124 -2 -362 -4 -530 -4 l-305 -1 -56 26 c-65 31 -171 109 -238 176
-52 51 -141 173 -141 191 0 6 -6 22 -14 34 -18 27 -54 165 -64 244 -12 98 -6
322 12 414 9 47 29 127 45 176 26 80 58 218 66 278 1 11 6 47 10 80 3 33 8 70
10 83 2 13 7 53 11 90 3 37 8 74 9 83 22 118 22 279 -1 464 -20 172 -20 172
70 238 108 79 426 248 666 355 25 11 77 34 115 52 92 42 443 191 570 242 55
22 109 44 120 48 24 11 130 52 390 150 199 75 449 173 500 195 17 7 118 50
225 95 237 100 333 143 490 220 229 113 348 191 337 223 -3 10 -70 20 -79 12z"/>
</g>
</svg>
