<?xml version="1.0" standalone="no"?>
<!DOCTYPE svg PUBLIC "-//W3C//DTD SVG 20010904//EN"
 "http://www.w3.org/TR/2001/REC-SVG-20010904/DTD/svg10.dtd">
<svg version="1.0" xmlns="http://www.w3.org/2000/svg"
 width="1080.000000pt" height="1080.000000pt" viewBox="0 0 1080.000000 1080.000000"
 preserveAspectRatio="xMidYMid meet">

<g transform="translate(0.000000,1080.000000) scale(0.100000,-0.100000)"
fill="#000000" stroke="none">
<path d="M4590 7085 l0 -185 485 0 485 0 0 -45 0 -45 -485 0 -485 0 2 -182 3
-183 130 -5 130 -5 0 -35 0 -35 -130 -5 -130 -5 -3 -182 -2 -183 517 0 518 0
97 -97 98 -98 0 98 0 97 130 0 130 0 0 185 0 185 -480 0 -480 0 0 40 0 40 480
0 480 0 0 185 0 185 -130 0 -130 0 0 45 0 45 130 0 130 0 0 185 0 185 -745 0
-745 0 0 -185z m1410 0 l0 -95 -135 0 -135 0 0 -130 0 -129 133 -3 132 -3 0
-95 0 -95 -482 -3 -483 -2 0 -130 0 -130 485 0 486 0 -3 -97 -3 -98 -134 -3
-133 -3 4 -29 c6 -38 -1 -38 -37 0 l-29 30 -493 0 -493 0 0 100 0 100 130 0
130 0 0 130 0 130 -130 0 -130 0 0 100 0 100 485 0 486 0 -3 128 -3 127 -482
3 -483 2 0 95 0 95 660 0 660 0 0 -95z"/>
<path d="M7490 5585 l0 -65 75 0 75 0 0 65 0 65 -75 0 -75 0 0 -65z"/>
<path d="M7030 5505 l0 -75 -80 0 -80 0 0 -70 0 -70 80 0 80 0 0 -278 0 -278
38 -37 38 -37 112 0 112 0 0 70 0 70 -53 0 c-43 0 -58 5 -75 23 -21 22 -22 31
-22 245 l0 222 75 0 75 0 0 70 0 70 -75 0 -75 0 0 75 0 75 -75 0 -75 0 0 -75z"/>
<path d="M7490 5050 l0 -390 75 0 75 0 0 390 0 390 -75 0 -75 0 0 -390z"/>
<path d="M2107 5352 l-77 -77 0 -75 0 -75 78 -78 77 -77 211 0 210 0 38 -39
39 -39 -38 -46 -37 -46 -289 0 -289 0 0 -70 0 -70 308 0 307 0 78 78 77 77 0
77 0 76 -77 71 -77 71 -212 0 -212 0 -36 44 -35 44 40 46 41 46 284 0 284 0 0
70 0 70 -308 0 -307 0 -78 -78z"/>
<path d="M3037 5332 l-97 -97 0 -190 0 -190 98 -98 97 -97 248 0 247 0 0 70 0
70 -228 0 -228 0 -43 44 c-37 38 -42 48 -39 82 l3 39 270 3 269 2 38 37 38 37
0 116 0 115 -78 78 -77 77 -210 0 -210 0 -98 -98z m479 -86 c39 -39 44 -48 44
-90 l0 -46 -235 0 -235 0 0 46 c0 42 5 51 44 90 l43 44 148 0 148 0 43 -44z"/>
<path d="M3850 5045 l0 -385 75 0 75 0 0 315 0 315 114 0 113 0 42 -45 41 -45
0 -270 0 -270 75 0 75 0 0 279 0 279 40 36 c38 34 43 36 112 36 71 0 73 0 115
-42 l43 -42 0 -273 0 -273 75 0 75 0 0 288 0 287 -98 98 -97 97 -115 0 -114 0
-58 -57 -58 -57 -58 57 -58 57 -207 0 -207 0 0 -385z"/>
<path d="M5130 5360 l0 -70 229 0 228 0 42 -45 c34 -37 41 -52 41 -85 l0 -40
-233 0 -232 0 -78 -78 -77 -77 0 -75 0 -75 78 -78 77 -77 308 0 307 0 0 288 0
287 -98 98 -97 97 -248 0 -247 0 0 -70z m538 -467 l-3 -88 -210 -3 -210 -2
-39 51 -38 51 38 39 38 39 213 0 214 0 -3 -87z"/>
<path d="M5970 5045 l0 -385 75 0 75 0 0 315 0 315 188 0 188 0 42 -43 42 -43
0 -272 0 -272 75 0 75 0 0 288 0 287 -98 98 -97 97 -283 0 -282 0 0 -385z"/>
<path d="M7867 5332 l-97 -97 0 -190 0 -190 98 -98 97 -97 288 0 287 0 0 70 0
70 -267 0 -267 0 -43 42 -43 42 0 159 0 160 44 43 43 44 175 0 c169 0 175 -1
196 -23 17 -18 22 -36 22 -80 l0 -57 70 0 70 0 0 113 0 113 -38 37 -38 37
-250 0 -249 0 -98 -98z"/>
</g>
</svg>
