<?xml version="1.0" standalone="no"?>
<!DOCTYPE svg PUBLIC "-//W3C//DTD SVG 20010904//EN"
 "http://www.w3.org/TR/2001/REC-SVG-20010904/DTD/svg10.dtd">
<svg version="1.0" xmlns="http://www.w3.org/2000/svg"
 width="1080.000000pt" height="1080.000000pt" viewBox="0 0 1080.000000 1080.000000"
 preserveAspectRatio="xMidYMid meet">

<g transform="translate(0.000000,1080.000000) scale(0.100000,-0.100000)"
fill="#000000" stroke="none">
<path d="M8300 5935 l0 -65 75 0 75 0 0 65 0 65 -75 0 -75 0 0 -65z"/>
<path d="M1410 5805 l0 -155 405 0 405 0 0 -40 0 -40 -405 0 -405 0 0 -155 0
-155 110 0 110 0 0 -35 0 -35 -110 0 -110 0 0 -155 0 -155 432 0 433 0 82 -82
83 -83 0 83 0 82 110 0 110 0 0 155 0 155 -405 0 -405 0 0 35 0 35 405 0 405
0 0 155 0 155 -110 0 -110 0 0 40 0 40 110 0 111 0 -3 153 -3 152 -622 3 -623
2 0 -155z m1180 -5 l0 -80 -108 0 c-60 0 -111 -2 -113 -4 -2 -2 -3 -52 -1
-110 l3 -105 107 -3 107 -3 3 -77 3 -78 -406 -2 -406 -3 -2 -107 -2 -108 405
-2 405 -3 0 -80 0 -80 -111 -3 -111 -3 5 -24 c6 -32 -8 -32 -38 0 l-23 25
-414 0 -414 0 3 83 3 82 108 3 107 3 0 109 0 110 -110 0 -110 0 0 80 0 80 405
0 405 0 0 110 0 110 -405 0 -405 0 0 80 0 80 555 0 555 0 0 -80z"/>
<path d="M7840 5855 l0 -75 -80 0 -80 0 0 -70 0 -70 80 0 80 0 0 -278 0 -278
38 -37 38 -37 112 0 112 0 0 70 0 70 -53 0 c-43 0 -58 5 -75 23 -21 22 -22 31
-22 245 l0 222 75 0 75 0 0 70 0 70 -75 0 -75 0 0 75 0 75 -75 0 -75 0 0 -75z"/>
<path d="M8300 5400 l0 -390 75 0 75 0 0 390 0 390 -75 0 -75 0 0 -390z"/>
<path d="M2917 5702 l-77 -77 0 -75 0 -75 78 -78 77 -77 211 0 210 0 38 -39
39 -39 -38 -46 -37 -46 -289 0 -289 0 0 -70 0 -70 308 0 307 0 78 78 77 77 0
77 0 76 -77 71 -77 71 -212 0 -212 0 -36 44 -35 44 40 46 41 46 284 0 284 0 0
70 0 70 -308 0 -307 0 -78 -78z"/>
<path d="M3847 5682 l-97 -97 0 -190 0 -190 98 -98 97 -97 248 0 247 0 0 70 0
70 -228 0 -228 0 -43 44 c-37 38 -42 48 -39 82 l3 39 270 3 269 2 38 37 38 37
0 116 0 115 -78 78 -77 77 -210 0 -210 0 -98 -98z m479 -86 c39 -39 44 -48 44
-90 l0 -46 -235 0 -235 0 0 46 c0 42 5 51 44 90 l43 44 148 0 148 0 43 -44z"/>
<path d="M4660 5395 l0 -385 75 0 75 0 0 315 0 315 114 0 113 0 42 -45 41 -45
0 -270 0 -270 75 0 75 0 0 279 0 279 40 36 c38 34 43 36 112 36 71 0 73 0 115
-42 l43 -42 0 -273 0 -273 75 0 75 0 0 288 0 287 -98 98 -97 97 -115 0 -114 0
-58 -57 -58 -57 -58 57 -58 57 -207 0 -207 0 0 -385z"/>
<path d="M5940 5710 l0 -70 229 0 228 0 42 -45 c34 -37 41 -52 41 -85 l0 -40
-233 0 -232 0 -78 -78 -77 -77 0 -75 0 -75 78 -78 77 -77 308 0 307 0 0 288 0
287 -98 98 -97 97 -248 0 -247 0 0 -70z m538 -467 l-3 -88 -210 -3 -210 -2
-39 51 -38 51 38 39 38 39 213 0 214 0 -3 -87z"/>
<path d="M6780 5395 l0 -385 75 0 75 0 0 315 0 315 188 0 188 0 42 -43 42 -43
0 -272 0 -272 75 0 75 0 0 288 0 287 -98 98 -97 97 -283 0 -282 0 0 -385z"/>
<path d="M8677 5682 l-97 -97 0 -190 0 -190 98 -98 97 -97 288 0 287 0 0 70 0
70 -267 0 -267 0 -43 42 -43 42 0 159 0 160 44 43 43 44 175 0 c169 0 175 -1
196 -23 17 -18 22 -36 22 -80 l0 -57 70 0 70 0 0 113 0 113 -38 37 -38 37
-250 0 -249 0 -98 -98z"/>
</g>
</svg>
