<?xml version="1.0" standalone="no"?>
<!DOCTYPE svg PUBLIC "-//W3C//DTD SVG 20010904//EN"
 "http://www.w3.org/TR/2001/REC-SVG-20010904/DTD/svg10.dtd">
<svg version="1.0" xmlns="http://www.w3.org/2000/svg"
 width="1080.000000pt" height="1080.000000pt" viewBox="0 0 1080.000000 1080.000000"
 preserveAspectRatio="xMidYMid meet">

<g transform="translate(0.000000,1080.000000) scale(0.100000,-0.100000)"
fill="#000000" stroke="none">
<path d="M3870 6910 l0 -360 935 0 935 0 0 -85 0 -85 -935 0 -935 0 0 -360 0
-360 250 0 250 0 0 -85 0 -85 -250 0 -250 0 0 -357 0 -358 997 3 997 2 193
-192 193 -192 0 192 0 193 253 -1 252 -1 3 355 2 356 -940 0 -940 0 0 85 0 85
940 0 940 0 0 360 0 360 -255 0 -255 0 0 85 0 85 255 0 255 0 -2 358 -3 357
-1442 3 -1443 2 0 -360z m2720 0 l0 -190 -255 0 -255 0 0 -255 0 -255 255 0
255 0 0 -190 0 -190 -940 0 -940 0 0 -255 0 -255 940 0 940 0 -2 -187 -3 -188
-252 -3 -253 -2 0 -67 0 -67 -68 67 -67 67 -955 2 -955 3 -3 188 -2 187 255 0
255 0 0 255 0 255 -252 2 -253 3 -3 188 -2 187 940 0 940 0 0 255 0 255 -940
0 -940 0 0 183 c0 101 3 187 7 190 3 4 579 7 1280 7 l1273 0 0 -190z"/>
</g>
</svg>
