<?xml version="1.0" encoding="UTF-8"?>
<svg version="1.1" xmlns="http://www.w3.org/2000/svg" width="1135" height="340">
<path d="M0 0 C12.54 0 25.08 0 38 0 C50.05012759 14.01177627 50.05012759 14.01177627 52.72265625 20.015625 C55.20445197 25.37261514 57.92799492 30.33034527 61.1875 35.25 C61.94908874 36.4768305 62.70683115 37.70605609 63.4609375 38.9375 C68.52610983 47.104728 73.86669765 55.10120145 79.13037109 63.14111328 C81.97064884 67.48423843 84.79841149 71.83545786 87.625 76.1875 C88.15327393 77.00057617 88.68154785 77.81365234 89.22583008 78.65136719 C90.28635925 80.28365003 91.34682505 81.91597406 92.40722656 83.54833984 C94.5612947 86.86396711 96.71616878 90.1790702 98.87109375 93.49414062 C100.49488299 95.99212815 102.11853545 98.49020455 103.7421875 100.98828125 C105.93441515 104.36098988 108.12717908 107.73334904 110.3203125 111.10546875 C115.83694114 119.58858637 121.34650231 128.07614542 126.84082031 136.57373047 C130.34484445 141.99145199 133.85815297 147.40309464 137.375 152.8125 C137.91318359 153.64040039 138.45136719 154.46830078 139.00585938 155.32128906 C141.84840567 159.69326722 144.69278966 164.06404075 147.5390625 168.43359375 C148.11865723 169.32393311 148.69825195 170.21427246 149.29541016 171.1315918 C150.39603668 172.82225629 151.49723281 174.51255017 152.59912109 176.20239258 C153.10266113 176.97607178 153.60620117 177.74975098 154.125 178.546875 C154.56070313 179.21557617 154.99640625 179.88427734 155.4453125 180.57324219 C157.659867 184.03000596 159.82419669 187.5187147 162 191 C162.495 96.455 162.495 96.455 163 0 C174.22 0 185.44 0 197 0 C197 81.84 197 163.68 197 248 C184.13 248 171.26 248 158 248 C147.62035591 235.94846693 147.62035591 235.94846693 145.34765625 230.296875 C142.21825203 223.17511253 138.26152929 217.03299247 133.82305908 210.66555786 C131.86196529 207.8369131 129.95698747 204.97126588 128.05078125 202.10546875 C126.99431396 200.52064697 126.99431396 200.52064697 125.91650391 198.90380859 C123.09271073 194.62531228 120.37491965 190.28736408 117.68725586 185.92260742 C112.25576713 177.12343399 106.53317575 168.50957863 100.86962891 159.85888672 C98.02935116 155.51576157 95.20158851 151.16454214 92.375 146.8125 C91.84672607 145.99942383 91.31845215 145.18634766 90.77416992 144.34863281 C89.71364075 142.71634997 88.65317495 141.08402594 87.59277344 139.45166016 C85.4387053 136.13603289 83.28383122 132.8209298 81.12890625 129.50585938 C79.50511701 127.00787185 77.88146455 124.50979545 76.2578125 122.01171875 C74.06558485 118.63901012 71.87282092 115.26665096 69.6796875 111.89453125 C64.17114412 103.42384662 58.66956191 94.94878841 53.18334961 86.46362305 C49.44219603 80.67922931 45.69137246 74.90114667 41.9375 69.125 C41.37675781 68.26197266 40.81601562 67.39894531 40.23828125 66.50976562 C39.71492187 65.70474609 39.1915625 64.89972656 38.65234375 64.0703125 C38.18820068 63.35633301 37.72405762 62.64235352 37.24584961 61.90673828 C36.17318476 60.26505448 35.08779743 58.63169615 34 57 C33.67 120.03 33.34 183.06 33 248 C22.11 248 11.22 248 0 248 C0 166.16 0 84.32 0 0 Z " fill="#263B4E" transform="translate(487,45)"/>
<path d="M0 0 C54.12 0 108.24 0 164 0 C164 11.22 164 22.44 164 34 C120.77 34 77.54 34 33 34 C33 54.46 33 74.92 33 96 C63.03 96 93.06 96 124 96 C124 107.22 124 118.44 124 130 C93.97 130 63.94 130 33 130 C33 158.05 33 186.1 33 215 C76.23 215 119.46 215 164 215 C164 226.22 164 237.44 164 249 C109.88 249 55.76 249 0 249 C0 166.83 0 84.66 0 0 Z " fill="#263B4E" transform="translate(294,45)"/>
<path d="M0 0 C10.77170843 -0.07001489 21.54336127 -0.12306951 32.3152523 -0.15543652 C37.31897488 -0.17098382 42.32253992 -0.19201798 47.32617188 -0.22631836 C52.16970964 -0.25930728 57.01309746 -0.27693482 61.85673904 -0.28463173 C63.68958517 -0.29010527 65.52242462 -0.30078959 67.35520554 -0.31719017 C96.98697828 -0.57140676 125.33286266 6.4722984 149 25 C149.57347168 25.44859375 150.14694336 25.8971875 150.73779297 26.359375 C175.89704688 46.34948343 191.94394686 74.16220716 197.375 105.875 C201.10589653 138.56842323 193.87009209 172.39129841 173.6015625 198.7890625 C152.37760708 225.38739329 124.06185683 243.45581886 90 248 C79.55450925 249.11142499 69.15566805 249.1317053 58.66796875 249.09765625 C57.13236528 249.09618162 55.5967613 249.09516413 54.06115723 249.09460449 C48.43659703 249.08941203 42.81204768 249.07545107 37.1875 249.0625 C24.585625 249.041875 11.98375 249.02125 -1 249 C-1 216.99 -1 184.98 -1 152 C10.22 152 21.44 152 33 152 C33 172.79 33 193.58 33 215 C40.755 214.896875 48.51 214.79375 56.5 214.6875 C60.1187207 214.65015747 60.1187207 214.65015747 63.81054688 214.61206055 C90.90206669 214.21891655 114.29367349 208.31425991 135 190 C135.61101562 189.47148437 136.22203125 188.94296875 136.8515625 188.3984375 C151.229316 175.07111348 162.02641442 153.1708216 163.13842773 133.55859375 C164.12109783 106.03422049 157.91838963 83.04744329 139.48828125 62.15234375 C124.95658607 47.02751815 103.30671306 35.37887962 81.97561646 34.84178162 C80.42797314 34.82131691 78.88025728 34.80592596 77.33251953 34.79467773 C76.48308273 34.78477814 75.63364594 34.77487854 74.75846863 34.76467896 C71.96661105 34.73323433 69.1747365 34.70837427 66.3828125 34.68359375 C64.44082206 34.66300949 62.49883596 34.64201264 60.55685425 34.62062073 C55.45731119 34.56555204 50.35772871 34.51607598 45.25811768 34.46777344 C40.04964714 34.41744711 34.8412335 34.36181926 29.6328125 34.30664062 C19.42192366 34.19924512 9.21098532 34.09775916 -1 34 C-1.02953103 30.39585115 -1.04697407 26.79173424 -1.0625 23.1875 C-1.07087891 22.18267578 -1.07925781 21.17785156 -1.08789062 20.14257812 C-1.10966319 13.37131176 -0.7369831 6.73089074 0 0 Z " fill="#263B4E" transform="translate(1,45)"/>
<path d="M0 0 C3.38622693 0.04157026 6.77258396 0.05954643 10.15899658 0.0793457 C16.75535516 0.11957967 23.34967218 0.1979307 29.94610596 0.2746582 C29.94610596 11.4946582 29.94610596 22.7146582 29.94610596 34.2746582 C25.94743408 34.30043945 21.94876221 34.3262207 17.82891846 34.3527832 C14.61536091 34.38451872 11.40189925 34.4201722 8.18841553 34.45845032 C4.81010012 34.49762817 1.43204163 34.53010314 -1.94647217 34.5456543 C-5.83426301 34.56718933 -9.72108424 34.61389763 -13.60858154 34.6652832 C-14.80377411 34.66651184 -15.99896667 34.66774048 -17.2303772 34.66900635 C-27.56104973 34.84762943 -35.74393242 37.18423971 -43.36248779 44.34106445 C-50.22766022 52.18924079 -50.7140994 61.25154056 -50.05389404 71.2746582 C-48.64944747 78.11995293 -45.15725196 83.05488467 -39.56634521 87.05395508 C-30.26732603 93.00221246 -20.55200384 96.91237435 -10.24139404 100.7746582 C41.49008685 120.27988648 41.49008685 120.27988648 52.94610596 144.2746582 C60.60061876 163.68081084 60.61610783 186.26280934 52.59063721 205.52856445 C43.86083184 224.22860329 28.16516426 238.02419516 8.94610596 245.2746582 C-4.34615947 249.46669986 -17.73696496 249.41819966 -31.53436279 249.37231445 C-33.20015927 249.37044543 -34.86595631 249.36902382 -36.53175354 249.36802673 C-40.87996992 249.36423968 -45.22815199 249.35444271 -49.57635498 249.34332275 C-54.81285137 249.33121012 -60.04935934 249.32668822 -65.28586578 249.32086945 C-73.20856561 249.31122829 -81.1311904 249.29204526 -89.05389404 249.2746582 C-89.05389404 238.0546582 -89.05389404 226.8346582 -89.05389404 215.2746582 C-81.46647217 215.21858398 -81.46647217 215.21858398 -73.72576904 215.16137695 C-70.49917409 215.13105985 -67.27263181 215.09988768 -64.04608154 215.06567383 C-58.93771194 215.01158568 -53.82944651 214.96046807 -48.72088623 214.92822266 C-44.59690701 214.9019923 -40.47328273 214.86145481 -36.34952545 214.81147194 C-34.785316 214.79493536 -33.22104536 214.78333963 -31.65676117 214.7770443 C-15.52383519 214.70562253 -1.24882756 212.39771611 10.88360596 200.8996582 C17.41341998 193.93841004 20.38481219 186.33663086 21.25860596 176.8996582 C20.36829005 166.57199369 16.30494093 159.19541504 8.82110596 152.1496582 C-1.9402398 143.64366605 -16.21617035 139.64713438 -28.91888428 134.95727539 C-43.61002442 129.51642626 -58.15518129 123.78640444 -70.05389404 113.2746582 C-70.65330811 112.7796582 -71.25272217 112.2846582 -71.87030029 111.7746582 C-82.27724989 102.46195163 -87.7874902 88.30430017 -88.92498779 74.63012695 C-88.96752686 73.85282227 -89.01006592 73.07551758 -89.05389404 72.2746582 C-89.10674561 71.38391602 -89.15959717 70.49317383 -89.21405029 69.57543945 C-89.73378078 52.65030322 -84.77600496 36.5263333 -73.55389404 23.7121582 C-72.07432197 22.21255808 -70.5757103 20.73137002 -69.05389404 19.2746582 C-68.46479248 18.65461914 -67.87569092 18.03458008 -67.26873779 17.39575195 C-63.21742905 13.41567501 -58.60869333 10.70840448 -53.61639404 8.0871582 C-53.02721191 7.76602051 -52.43802979 7.44488281 -51.83099365 7.11401367 C-35.47830203 -1.02552544 -17.79840803 -0.24223686 0 0 Z " fill="#263B4E" transform="translate(813.0538940429688,44.725341796875)"/>
<path d="M0 0 C55.77 0 111.54 0 169 0 C169 11.22 169 22.44 169 34 C146.56 34 124.12 34 101 34 C101 104.95 101 175.9 101 249 C90.11 249 79.22 249 68 249 C68 178.05 68 107.1 68 34 C45.56 34 23.12 34 0 34 C0 22.78 0 11.56 0 0 Z " fill="#263B4E" transform="translate(866,45)"/>
<path d="M0 0 C33 0 66 0 100 0 C100 32.01 100 64.02 100 97 C67 97 34 97 0 97 C0 64.99 0 32.98 0 0 Z " fill="#DE170E" transform="translate(1035,197)"/>
<path d="M0 0 C11.22 0 22.44 0 34 0 C34 82.17 34 164.34 34 249 C22.78 249 11.56 249 0 249 C0 166.83 0 84.66 0 0 Z " fill="#263B4E" transform="translate(223,45)"/>
</svg>
